<?xml version="1.0" encoding="UTF-8"?>
<svg id="Layer_1" xmlns="http://www.w3.org/2000/svg" version="1.1" viewBox="0 0 512 382.1">
  <!-- Generator: Adobe Illustrator 29.8.4, SVG Export Plug-In . SVG Version: 2.1.1 Build 6)  -->
  <defs>
    <style>
      .st0 {
        fill: #c8c9d3;
      }
    </style>
  </defs>
  <path class="st0" d="M499.1,12.6c-7.8-7.8-18.7-12.7-30.8-12.7H43.7C31.6-.1,20.7,4.8,12.9,12.6,4.6,20.8,0,31.9,0,43.6v294.8c0,24.1,19.6,43.7,43.7,43.7h424.6c24.1,0,43.7-19.6,43.7-43.7V43.6c0-11.8-4.6-22.8-12.9-31ZM447.4,37.4c-7.6,7.5-178.8,175.2-191.4,187.6-12.8-12.6-183.9-180.2-191.4-187.6h382.8ZM474.5,338.4c0,3.4-2.8,6.2-6.2,6.2H43.7c-3.4,0-6.2-2.8-6.2-6.2V63.2l205.4,201.3c7.3,7.1,18.9,7.2,26.2,0L474.5,63.2v275.2Z"/>
</svg>