<?xml version="1.0" encoding="UTF-8"?>
<svg id="Capa_1" xmlns="http://www.w3.org/2000/svg" version="1.1" viewBox="0 0 207.2 43">
  <!-- Generator: Adobe Illustrator 29.8.4, SVG Export Plug-In . SVG Version: 2.1.1 Build 6)  -->
  <defs>
    <style>
      .st0 {
        fill: #212a53;
      }

      .st1 {
        fill: #ffd301;
      }
    </style>
  </defs>
  <path class="st1" d="M35.8,21.5h-6.5v-7.8h-7.9v-6.5h14.3v14.3ZM43,43V0H0v28.6c0,7.9,6.4,14.4,14.4,14.4h28.6Z"/>
  <path class="st0" d="M126.5,24.9h-3.8v18.1h3.8v-18.1h0ZM106.6,24.9h-3.8v18.1h3.8v-7.5h7.6v7.5h3.8v-18.1h-1.9c-1.1,0-2,.9-2,2v5.2h-7.6v-7.1ZM78.7,24.9h-3.8v18.1h3.8v-18.1ZM63.9,28.4c2.7,0,3.9.8,3.9,2.6s-1.3,2.7-3.9,2.7h-2.8v-5.3h2.8ZM64.6,24.9h-7.3v18.1h3.8v-5.7h3.5c2.1,0,3.8-.6,5.1-1.7,1.3-1.2,2-2.7,2-4.6s-.6-3.3-1.9-4.4c-1.3-1.1-3-1.7-5.1-1.7M68.2,12.5c0,1.5-1.1,2.1-3.3,2.1h-3.8v-4.1h4c2.1,0,3.1.7,3.1,2M67.8,5.4c0,1.2-1,1.9-3,1.9h-3.7v-3.7h3.5c2.2,0,3.1.5,3.1,1.9M69.8,8.7c1.2-1,1.9-2.2,1.9-3.7,0-3.2-2.5-5-6.3-5h-8.1v18.1h8.6c1.9,0,3.4-.5,4.5-1.4,1.2-1,1.7-2.3,1.7-3.8s-.8-3-2.3-4.1M84.7,11.1h-4.5l2.2-5.9,2.2,5.9ZM87.4,18.1h4l-6.6-16.9c-.3-.7-1-1.2-1.8-1.2h-2.3l-7.1,18.1h4l1.4-3.6h7l1.4,3.6ZM91.7,24.6c-2.7,0-5,.9-6.8,2.6-1.8,1.7-2.7,4-2.7,6.8s.9,5,2.7,6.7c1.8,1.7,4.1,2.6,6.9,2.6s5.5-1.1,7.4-3.4l-2.6-2.7c-1.2,1.7-2.9,2.5-4.9,2.5s-2.9-.5-4-1.6c-1.1-1-1.6-2.5-1.6-4.2s.5-3.2,1.6-4.2c1.1-1,2.3-1.5,3.7-1.5s2.6.4,3.6,1.2c.8.6,1.9.5,2.6-.2l1.2-1.2c-1.8-2.3-4.2-3.4-7.2-3.4M106.5,18.1h3.5V0h-3.8v12.3l-6.7-11.3c-.4-.6-1-1-1.7-1h-3.5v18.1h3.8V5.9l6.7,11.3c.4.6,1,1,1.7,1M119,13.2c-1.1-1-1.6-2.5-1.6-4.2s.5-3.2,1.6-4.2c1.1-1,2.3-1.5,3.7-1.5s2.7.5,3.7,1.2c.8.6,1.9.5,2.5-.2l1.2-1.2c-1.8-2.3-4.2-3.4-7.2-3.4s-5,.9-6.8,2.6c-1.8,1.7-2.7,4-2.7,6.8s.9,5,2.7,6.7c1.8,1.7,4.1,2.6,6.9,2.6s5.5-1.1,7.4-3.4l-2.6-2.7c-1.2,1.7-2.9,2.5-4.9,2.5s-2.9-.5-4-1.5M134.8,24.9h-3.5v18.1h3.9v-12.2l6.7,11.3c.4.6,1,1,1.7,1h3.5v-18.1h-3.8v12.3l-6.7-11.3c-.4-.6-1-1-1.7-1M147.1,9c0,1.6-.5,3-1.5,4.1-1,1.1-2.3,1.7-3.9,1.7s-3-.5-4-1.7c-1-1.1-1.5-2.5-1.5-4.1s.5-2.9,1.5-4.1c1-1.1,2.3-1.7,4-1.7s2.8.6,3.8,1.7c1,1.1,1.5,2.5,1.5,4M148.3,15.8c1.8-1.8,2.7-4,2.7-6.7s-.9-4.9-2.7-6.7c-1.8-1.8-4-2.7-6.7-2.7s-4.8.9-6.6,2.7c-1.8,1.8-2.7,4-2.7,6.7s.9,4.9,2.7,6.7c1.8,1.8,4,2.6,6.6,2.6s4.9-.9,6.7-2.6M156.1,38.1c-1.1-1-1.6-2.5-1.6-4.2s.5-3.2,1.6-4.2c1.1-1,2.3-1.5,3.7-1.5s2.7.5,3.7,1.2c.8.6,1.9.5,2.5-.2l1.2-1.2c-1.8-2.3-4.2-3.4-7.2-3.4s-5,.9-6.8,2.6c-1.8,1.7-2.7,4-2.7,6.8s.9,5,2.7,6.7c1.8,1.7,4.1,2.6,6.9,2.6s5.5-1.1,7.4-3.4l-2.6-2.7c-1.2,1.7-2.9,2.5-4.9,2.5s-2.9-.5-4-1.6M182.5,43h3.8v-18.1h-1.9c-1.1,0-2,.9-2,2v5.2h-7.6v-7.1h-3.9v18.1h3.9v-7.5h7.6v7.5ZM200.5,36h-4.5l2.2-5.9,2.2,5.9ZM207.2,43l-6.6-16.9c-.3-.7-1-1.2-1.8-1.2h-2.3l-7.1,18.1h4l1.4-3.6h7l1.4,3.6h4Z"/>
  <polygon class="st0" points="35.8 21.5 29.4 21.5 29.4 13.6 21.5 13.6 21.5 7.2 35.8 7.2 35.8 21.5"/>
</svg>