<?xml version="1.0" encoding="UTF-8"?>
<svg id="Capa_1" xmlns="http://www.w3.org/2000/svg" version="1.1" viewBox="0 0 430.1 512">
  <!-- Generator: Adobe Illustrator 29.8.4, SVG Export Plug-In . SVG Version: 2.1.1 Build 6)  -->
  <defs>
    <style>
      .st0 {
        fill: #c8c9d3;
      }
    </style>
  </defs>
  <path class="st0" d="M215.2,0c-69.7,0-126.6,56.2-126.6,125s56.9,125,126.6,125,126.9-56.2,126.9-125S284.9,0,215.2,0ZM215.2,46.1c44.4,0,79.9,35.1,79.9,78.8s-35.5,78.7-79.9,78.7-79.9-34.9-79.9-78.7,35.5-78.8,79.9-78.8h0Z"/>
  <path id="path940-3" class="st0" d="M215.4,276.8C96.9,276.8.2,371.9,0,488.8c0,12.7,10.5,23,23.3,23h383.4c12.9,0,23.3-10.3,23.3-23-.3-116.7-96.5-211.8-214.8-211.9ZM215.2,323.1h.2c83.8.2,152.4,63.5,165.9,142.6H49.1c13.6-79.1,82.2-142.5,166.1-142.6h0Z"/>
</svg>